# xmcd
#
# Track frame offsets: 
#        150
#        29948
#        59080
#        78248
#        101953
#        122910
#        229962
#        270729
#        289439
#        304499
#
# Disc length: 4237 seconds
#
# Revision: 3
# Processed by: cddbd v1.5.2PL0 Copyright (c) Steve Scherf et al.
# Submitted via: ExactAudioCopy v1.1
#
DISCID=a5108b0a
DTITLE=Dutilleux, Henri - Henri Dutilleux Edition DG CD 3
DYEAR=1995
DGENRE=Classical
TTITLE0=Cello Concerto, "Tout un monde lointain …" - I. Enigme
TTITLE1=Cello Concerto, "Tout un monde lointain …" - II. Regard
TTITLE2=Cello Concerto, "Tout un monde lointain …" - III. Houles
TTITLE3=Cello Concerto, "Tout un monde lointain …" - IV. Miroirs
TTITLE4=Cello Concerto, "Tout un monde lointain …" - V. Hymne
TTITLE5=Violin Concerto, "L'arbre des songes" (Tree of dreams): I. Lib
TTITLE5=rement
TTITLE6=Nocturne for violin and orchestra, "Sur le meme accord"
TTITLE7=3 Strophes sur le nom de Sacher - No. 1. Un poco indeciso
TTITLE8=3 Strophes sur le nom de Sacher - No. 2. Andante sostenuto
TTITLE9=3 Strophes sur le nom de Sacher - No. 3. Vivace
EXTD=
EXTT0=
EXTT1=
EXTT2=
EXTT3=
EXTT4=
EXTT5=
EXTT6=
EXTT7=
EXTT8=
EXTT9=
PLAYORDER=
